<?xml version="1.0" encoding="UTF-8" standalone="no"?>
<!-- Created with Inkscape (http://www.inkscape.org/) -->

<svg
   xmlns:dc="http://purl.org/dc/elements/1.1/"
   xmlns:cc="http://creativecommons.org/ns#"
   xmlns:rdf="http://www.w3.org/1999/02/22-rdf-syntax-ns#"
   xmlns:svg="http://www.w3.org/2000/svg"
   xmlns="http://www.w3.org/2000/svg"
   xmlns:inkscape="http://www.inkscape.org/namespaces/inkscape"
   version="1.1"
   width="40"
   height="40"
   id="svg2"
   xml:space="preserve"><metadata
     id="metadata8"><rdf:RDF><cc:Work
         rdf:about=""><dc:format>image/svg+xml</dc:format><dc:type
           rdf:resource="http://purl.org/dc/dcmitype/StillImage" /></cc:Work></rdf:RDF></metadata><defs
     id="defs6" /><g
     transform="matrix(1.25,0,0,-1.25,0,40)"
     id="g10"><g
       transform="scale(0.1,0.1)"
       id="g12"><path
         d="m 155.027,84.3945 c -13.496,0 -24.441,7.2539 -24.441,16.2185 0,8.949 10.945,16.196 24.441,16.196 13.489,0 24.438,-7.247 24.438,-16.196 0,-8.9646 -10.949,-16.2185 -24.438,-16.2185 z m -3.054,142.6285 c 11.804,0 21.379,-9.433 21.379,-21.066 0,-11.641 -9.575,-21.074 -21.379,-21.074 -11.817,0 -21.387,9.433 -21.387,21.074 0,11.633 9.57,21.066 21.387,21.066 z m 3.054,-84.289 c -1.531,0 -3.015,-0.07 -4.507,-0.168 -1,2.793 -1.606,5.852 -1.606,9.172 0,3.282 0.59,9.051 1.555,9.063 l 1.504,-0.039 c 25.3,0 45.808,20.234 45.808,45.183 0,5.95 -2.754,13.657 -5.972,16.828 l 15.711,8.661 0,30.109 -32.786,-18.047 c -7.285,4.785 -14.695,7.598 -24.097,7.598 -25.317,0 -45.157,-20.215 -45.157,-45.149 0,-14.019 6.832,-26.558 17.02,-34.84 -2.832,-5.871 -4.297,-12.406 -4.297,-19.328 0,-6.23 1.414,-12.148 3.723,-17.531 C 108.613,126.562 100,114.375 100,100.613 c 0,-23.2888 24.641,-42.156 55,-42.156 30.383,0 55,18.8672 55,42.156 0,23.266 -24.609,42.121 -54.973,42.121"
         inkscape:connector-curvature="0"
         id="path14"
         style="fill:#000000;fill-opacity:1;fill-rule:nonzero;stroke:none" /></g></g></svg>