<svg xmlns="http://www.w3.org/2000/svg" width="40" height="40"><path d="M19.378 29.451c-1.687 0-3.055-.907-3.055-2.027 0-1.119 1.368-2.025 3.055-2.025 1.686 0 3.055.906 3.055 2.025 0 1.121-1.369 2.027-3.055 2.027zm-.382-17.829c1.476 0 2.672 1.179 2.672 2.633 0 1.455-1.197 2.634-2.672 2.634-1.477 0-2.673-1.179-2.673-2.634 0-1.454 1.196-2.633 2.673-2.633zm.382 10.536l-.563.021c-.125-.349-.201-.732-.201-1.147 0-.41.074-1.131.194-1.133l.188.005c3.163 0 5.726-2.529 5.726-5.648 0-.744-.344-1.707-.747-2.103l1.964-1.083v-3.764l-4.098 2.256c-.911-.598-1.837-.95-3.012-.95-3.165 0-5.645 2.527-5.645 5.644 0 1.752.854 3.32 2.127 4.355-.354.734-.537 1.551-.537 2.416 0 .779.177 1.518.465 2.191-1.664.96-2.741 2.484-2.741 4.204 0 2.911 3.08 5.269 6.875 5.269 3.798 0 6.875-2.358 6.875-5.269 0-2.908-3.076-5.265-6.872-5.265"/></svg>