<?xml version="1.0" encoding="UTF-8" standalone="no"?>
<!-- Created with Inkscape (http://www.inkscape.org/) -->

<svg
   xmlns:dc="http://purl.org/dc/elements/1.1/"
   xmlns:cc="http://creativecommons.org/ns#"
   xmlns:rdf="http://www.w3.org/1999/02/22-rdf-syntax-ns#"
   xmlns:svg="http://www.w3.org/2000/svg"
   xmlns="http://www.w3.org/2000/svg"
   xmlns:inkscape="http://www.inkscape.org/namespaces/inkscape"
   version="1.1"
   width="40"
   height="40"
   id="svg2"
   xml:space="preserve"><metadata
     id="metadata8"><rdf:RDF><cc:Work
         rdf:about=""><dc:format>image/svg+xml</dc:format><dc:type
           rdf:resource="http://purl.org/dc/dcmitype/StillImage" /></cc:Work></rdf:RDF></metadata><defs
     id="defs6" /><g
     transform="matrix(1.25,0,0,-1.25,0,40)"
     id="g10"><g
       transform="scale(0.1,0.1)"
       id="g12"><path
         d="M 160.012,250 C 104.785,250 60,217.82 60,178.105 c 0,-6.484 1.2617,-12.746 3.5078,-18.714 l 0.6602,-1.817 0.0508,-0.109 c 8.664,-24.137 32.2968,-44.738 64.0702,-52.192 -3.641,-10.4839 -11.961,-25.3511 -26.141,-34.6597 0,0 60.207,-8.7149 84.141,39.4847 0,0 -20.41,-27.1292 -62.101,-30.7503 12.121,15.9453 14.328,32.2613 14.328,32.2613 l -0.125,0.024 0.039,0.051 c -30.305,7.218 -54.9612,24.898 -65.012,46.949 -1.4727,5.019 -2.4414,10.195 -2.4414,15.551 0,38.472 40.0314,70.488 89.4064,70.488 49.383,0 86.719,-32.66 86.719,-71.137 0,-25.621 -15.11,-47.269 -41.567,-59.375 C 237.859,126.062 260,150.203 260,178.105 260,217.82 215.234,250 160.012,250"
         inkscape:connector-curvature="0"
         id="path14"
         style="fill:#000000;fill-opacity:1;fill-rule:nonzero;stroke:none" /><path
         d="m 189.863,126.023 c 17.266,10.993 28.301,27.614 28.301,46.223 0,29.996 -28.672,54.781 -66.086,59.184 l 2.336,0.07 c 42.625,0 77.195,-25.012 77.195,-55.863 0,-21.61 -16.961,-40.317 -41.746,-49.614"
         inkscape:connector-curvature="0"
         id="path16"
         style="fill:#000000;fill-opacity:1;fill-rule:nonzero;stroke:none" /></g></g></svg>