<svg xmlns="http://www.w3.org/2000/svg" width="40" height="40"><g transform="matrix(1.25 0 0 -1.25 0 40)"><path d="M16.001 25c-5.523 0-10.001-3.218-10.001-7.19 0-.648.126-1.275.351-1.871l.066-.182.005-.011c.866-2.414 3.23-4.474 6.407-5.219-.364-1.048-1.196-2.535-2.614-3.466 0 0 6.021-.871 8.414 3.948 0 0-2.041-2.713-6.21-3.075 1.212 1.595 1.433 3.226 1.433 3.226l-.013.002.004.005c-3.03.722-5.496 2.49-6.501 4.695-.147.502-.244 1.02-.244 1.555 0 3.847 4.003 7.049 8.941 7.049 4.938 0 8.672-3.266 8.672-7.114 0-2.562-1.511-4.727-4.157-5.938 3.232 1.19 5.447 3.604 5.447 6.395 0 3.972-4.477 7.19-9.999 7.19"/><path d="M18.986 12.602c1.727 1.099 2.83 2.761 2.83 4.622 0 3-2.867 5.478-6.609 5.918l.234.007c4.263 0 7.72-2.501 7.72-5.586 0-2.161-1.696-4.032-4.175-4.961"/></g></svg>