<svg xmlns="http://www.w3.org/2000/svg" width="40" height="40"><g transform="matrix(1.25 0 0 -1.25 0 40)"><path d="M21 15v-9h-12v9h-2v-11h16v11h-2"/><path d="M25.242 19.799l-3.381 7.25 1.813.845 3.381-7.25-1.813-.845"/><path d="M22.878 17.951l-4.926 6.305 1.577 1.23 4.924-6.304-1.575-1.231"/><path d="M20.99 15.619l-6.218 5.035 1.259 1.555 6.217-5.035-1.258-1.555"/><path d="M19.675 12.924l-7.19 3.506.877 1.799 7.189-3.508-.876-1.797"/><path d="M19 10l-7.795 1.8.449 1.948 7.795-1.799-.449-1.949"/><path d="M11 7h8v2h-8v-2z"/></g></svg>