<?xml version="1.0" encoding="UTF-8" standalone="no"?>
<!-- Created with Inkscape (http://www.inkscape.org/) -->

<svg
   xmlns:dc="http://purl.org/dc/elements/1.1/"
   xmlns:cc="http://creativecommons.org/ns#"
   xmlns:rdf="http://www.w3.org/1999/02/22-rdf-syntax-ns#"
   xmlns:svg="http://www.w3.org/2000/svg"
   xmlns="http://www.w3.org/2000/svg"
   xmlns:inkscape="http://www.inkscape.org/namespaces/inkscape"
   version="1.1"
   width="40"
   height="40"
   id="svg2"
   xml:space="preserve"><metadata
     id="metadata8"><rdf:RDF><cc:Work
         rdf:about=""><dc:format>image/svg+xml</dc:format><dc:type
           rdf:resource="http://purl.org/dc/dcmitype/StillImage" /></cc:Work></rdf:RDF></metadata><defs
     id="defs6" /><g
     transform="matrix(1.25,0,0,-1.25,0,40)"
     id="g10"><g
       transform="scale(0.1,0.1)"
       id="g12"><path
         d="m 210,150 0,-90 -120,0 0,90 -20,0 0,-110 160,0 0,110 -20,0"
         inkscape:connector-curvature="0"
         id="path14"
         style="fill:#000000;fill-opacity:1;fill-rule:nonzero;stroke:none" /><path
         d="m 252.422,197.988 -33.809,72.5 18.125,8.446 33.809,-72.496 -18.125,-8.45"
         inkscape:connector-curvature="0"
         id="path16"
         style="fill:#000000;fill-opacity:1;fill-rule:nonzero;stroke:none" /><path
         d="m 228.777,179.512 -49.257,63.047 15.773,12.304 49.238,-63.039 -15.754,-12.312"
         inkscape:connector-curvature="0"
         id="path18"
         style="fill:#000000;fill-opacity:1;fill-rule:nonzero;stroke:none" /><path
         d="m 209.902,156.191 -62.175,50.352 12.585,15.547 62.168,-50.352 -12.578,-15.547"
         inkscape:connector-curvature="0"
         id="path20"
         style="fill:#000000;fill-opacity:1;fill-rule:nonzero;stroke:none" /><path
         d="m 196.746,129.238 -71.902,35.059 8.769,17.988 71.895,-35.078 -8.762,-17.969"
         inkscape:connector-curvature="0"
         id="path22"
         style="fill:#000000;fill-opacity:1;fill-rule:nonzero;stroke:none" /><path
         d="m 190,100 -77.949,17.996 4.492,19.484 77.949,-17.988 L 190,100"
         inkscape:connector-curvature="0"
         id="path24"
         style="fill:#000000;fill-opacity:1;fill-rule:nonzero;stroke:none" /><path
         d="m 110,70 80,0 0,20 -80,0 0,-20 z"
         inkscape:connector-curvature="0"
         id="path26"
         style="fill:#000000;fill-opacity:1;fill-rule:nonzero;stroke:none" /></g></g></svg>