<?xml version="1.0" encoding="UTF-8" standalone="no"?>
<!-- Created with Inkscape (http://www.inkscape.org/) -->

<svg
   xmlns:dc="http://purl.org/dc/elements/1.1/"
   xmlns:cc="http://creativecommons.org/ns#"
   xmlns:rdf="http://www.w3.org/1999/02/22-rdf-syntax-ns#"
   xmlns:svg="http://www.w3.org/2000/svg"
   xmlns="http://www.w3.org/2000/svg"
   xmlns:inkscape="http://www.inkscape.org/namespaces/inkscape"
   version="1.1"
   width="40"
   height="40"
   id="svg2"
   xml:space="preserve"><metadata
     id="metadata8"><rdf:RDF><cc:Work
         rdf:about=""><dc:format>image/svg+xml</dc:format><dc:type
           rdf:resource="http://purl.org/dc/dcmitype/StillImage" /></cc:Work></rdf:RDF></metadata><defs
     id="defs6" /><g
     transform="matrix(1.25,0,0,-1.25,0,40)"
     id="g10"><g
       transform="scale(0.1,0.1)"
       id="g12"><path
         d="m 260,165.816 c -7.031,-1.308 -17.227,0.043 -22.645,2.5 11.219,1.008 18.836,6.563 21.766,14.106 -4.043,-2.695 -16.621,-5.668 -23.555,-2.844 -0.351,1.774 -0.742,3.465 -1.113,5 -5.273,21.145 -23.406,38.195 -42.383,36.141 1.524,0.672 3.075,1.293 4.641,1.863 2.078,0.813 14.351,3.016 12.41,7.695 -1.633,4.153 -16.609,-3.129 -19.426,-4.074 3.723,1.524 9.883,4.133 10.532,8.797 -5.696,-0.844 -11.301,-3.789 -15.618,-8.062 1.551,1.843 2.746,4.074 2.996,6.464 -15.222,-10.586 -24.121,-31.914 -31.304,-52.617 -5.649,5.969 -10.664,10.66 -15.149,13.277 -12.605,7.333 -27.668,15.004 -51.3082,24.567 -0.7344,-8.512 3.8593,-19.844 17.0702,-27.375 -2.844,0.434 -8.0859,-0.516 -12.2734,-1.606 1.7071,-9.761 7.2854,-17.8 22.3904,-21.687 -6.902,-0.477 -10.469,-2.215 -13.691,-5.887 3.125,-6.793 10.801,-14.769 24.609,-13.136 -15.351,-7.2 -6.261,-20.543 6.239,-18.563 C 112.891,106.414 79.2969,108.188 60,128.223 c 50.352,-74.7074 159.836,-44.1761 176.133,27.789 12.234,-0.106 19.414,4.597 23.867,9.804"
         inkscape:connector-curvature="0"
         id="path14"
         style="fill:#000000;fill-opacity:1;fill-rule:nonzero;stroke:none" /></g></g></svg>