<svg xmlns="http://www.w3.org/2000/svg" width="40" height="40"><path d="M32.5 19.273c-.879.164-2.153-.005-2.831-.313 1.402-.126 2.354-.82 2.721-1.763-.505.337-2.078.709-2.944.355l-.139-.625c-.659-2.643-2.926-4.774-5.298-4.518.191-.084.384-.162.58-.233.26-.102 1.794-.377 1.551-.962-.204-.519-2.076.391-2.428.509.465-.191 1.235-.517 1.317-1.1-.712.105-1.413.474-1.952 1.008.194-.23.343-.509.374-.808-1.903 1.323-3.015 3.989-3.913 6.577-.706-.746-1.333-1.333-1.894-1.66-1.576-.917-3.458-1.875-6.414-3.071-.092 1.064.482 2.481 2.134 3.422-.355-.054-1.011.065-1.534.201.213 1.22.911 2.225 2.799 2.711-.863.06-1.309.277-1.711.736.391.849 1.35 1.846 3.076 1.642-1.919.9-.783 2.568.78 2.32-2.662 2.995-6.861 2.773-9.273.269 6.294 9.338 19.98 5.522 22.017-3.474 1.529.013 2.427-.575 2.983-1.226"/></svg>